# xmcd CD database file
#
# Track frame offsets:
#	150
#	25451
#	43339
#	67001
#	87161
#	114720
#	160131
#	208780
#	249473
#
# Disc length: 3962 seconds
#
# Revision: 0
# Processed by: cddbd v1.5.2PL0 Copyright (c) Steve Scherf et al.
# Submitted via: CDex 1.51
#
DISCID=800f7809
DTITLE=PAOLO DAMIANI special guest RITA MARCOTULLI - Quasi Band   JAZZ ITALIANO LIVE 2007-03-02
DYEAR=2007
DGENRE=Jazz
TTITLE0=PAOLO DAMIANI special guest RITA MARCOTULLI - Passi
TTITLE1=PAOLO DAMIANI special guest RITA MARCOTULLI - Cos'e' che ti fa andare cosi'
TTITLE2=PAOLO DAMIANI special guest RITA MARCOTULLI - Tango lento
TTITLE3=PAOLO DAMIANI special guest RITA MARCOTULLI - Ludi ludi
TTITLE4=PAOLO DAMIANI special guest RITA MARCOTULLI - Argentiera
TTITLE5=PAOLO DAMIANI special guest RITA MARCOTULLI - Rumori mediterranei
TTITLE6=PAOLO DAMIANI special guest RITA MARCOTULLI - Quello che non voglio
TTITLE7=PAOLO DAMIANI special guest RITA MARCOTULLI - Telesonge
TTITLE8=PAOLO DAMIANI special guest RITA MARCOTULLI - Le long du temps - Le verbe
EXTD=YEAR: 2007
EXTT0=
EXTT1=
EXTT2=
EXTT3=
EXTT4=
EXTT5=
EXTT6=
EXTT7=
EXTT8=
PLAYORDER=
